<?xml version="1.0" encoding="iso-8859-1"?>
<!-- Generator: Adobe Illustrator 19.0.0, SVG Export Plug-In . SVG Version: 6.00 Build 0)  -->
<svg version="1.1" id="Capa_1" xmlns="http://www.w3.org/2000/svg" xmlns:xlink="http://www.w3.org/1999/xlink" x="0px" y="0px"
	 viewBox="0 0 511.999 511.999" style="enable-background:new 0 0 511.999 511.999;" xml:space="preserve">
<g>
	<g>
		<path d="M487.033,228.324c-7.774-10.71-17.086-21.682-27.663-32.658c3.668-3.807,7.185-7.612,10.524-11.388
			c2.251,0.578,4.608,0.886,7.036,0.886c15.595,0,28.281-12.686,28.281-28.281c0-5.655-1.669-10.928-4.539-15.353
			c16.335-30.492,11.949-48.431,5.049-58.262c-12.611-17.963-40.749-21.257-81.366-9.521c-6.028,1.742-12.228,3.788-18.565,6.121
			c-0.521-1.966-1.055-3.906-1.603-5.819c6.749-5.173,11.107-13.316,11.107-22.457c0-15.595-12.686-28.281-28.281-28.281
			c-1.638,0-3.243,0.14-4.805,0.409C368.811,4.341,355.115,0.037,345.597,0.037c-10.003,0-24.91,4.774-39.133,27.521
			c-8.22,13.146-15.423,31.074-21.056,52.31c-6.338-2.334-12.539-4.38-18.567-6.122c-40.62-11.733-68.754-8.442-81.365,9.521
			c-6.626,9.439-11.264,26.951,4.267,56.783c2.55,4.897,8.588,6.798,13.486,4.251c4.897-2.551,6.801-8.589,4.251-13.486
			c-8.5-16.324-10.502-29.13-5.638-36.058c6.83-9.731,29.611-10.419,59.448-1.801c8.554,2.471,17.495,5.607,26.708,9.349
			c0.393,0.192,0.803,0.36,1.227,0.501c11.837,4.863,24.115,10.718,36.592,17.442c-7.553,4.766-15.102,9.793-22.601,15.057
			c-41.465,29.109-76.643,62.143-99.054,93.018c-24.836,34.216-31.299,61.797-18.688,79.759
			c5.396,7.688,16.612,16.359,39.739,16.359c0.393,0,0.79-0.003,1.191-0.008c5.03,7.853,13.834,13.068,23.833,13.068
			c13.945,0,25.564-10.145,27.867-23.441c2.409-0.817,4.841-1.678,7.295-2.583c1.818,6.855,3.806,13.401,5.96,19.593
			c13.711,39.411,32.466,60.243,54.238,60.243c21.948,0,40.808-21.137,54.543-61.124c2.038-5.932,3.924-12.18,5.655-18.705
			c6.335,2.333,12.533,4.378,18.558,6.119c15.935,4.603,29.947,6.894,41.855,6.894c18.448,0,31.847-5.498,39.511-16.415
			C518.331,290.121,511.869,262.54,487.033,228.324z M271.839,185.203c0.001,6.698,0.003,12.708,0.005,13.097
			c0.012,2.649,0.044,5.288,0.093,7.919c-3.988-3.49-7.872-7.011-11.646-10.559C264.017,192.163,267.869,188.674,271.839,185.203z
			 M250.237,317.506c-4.568,0-8.285-3.716-8.285-8.284c0-4.568,3.716-8.285,8.285-8.285c4.568,0,8.285,3.716,8.285,8.285
			C258.522,313.79,254.805,317.506,250.237,317.506z M274.222,294.251c-5.004-7.988-13.884-13.311-23.986-13.311
			c-13.948,0-25.57,10.151-27.868,23.453c-10.068-0.409-17.221-3.089-20.526-7.799c-6.83-9.73,0.26-31.389,18.504-56.524
			c7.21-9.933,15.858-20.128,25.697-30.358c8.518,8.032,17.561,15.927,27.08,23.644c1.43,20.644,4.031,40.367,7.705,58.488
			C278.608,292.684,276.404,293.487,274.222,294.251z M387.012,43.307c4.568,0,8.284,3.716,8.284,8.284
			c0,4.568-3.716,8.285-8.284,8.285c-4.568,0-8.285-3.716-8.285-8.285C378.727,47.024,382.444,43.307,387.012,43.307z
			 M396.543,141.438c-2.823-2.062-5.678-4.106-8.564-6.132c-7.499-5.264-15.048-10.291-22.601-15.057
			c8.842-4.765,17.583-9.094,26.139-12.942C393.593,118.151,395.276,129.585,396.543,141.438z M304.105,87.41
			c11.867-46.462,29.111-67.376,41.493-67.376c6.133,0,12.865,4.876,19.344,13.892c-3.884,4.843-6.212,10.988-6.212,17.665
			c0,14.93,11.629,27.194,26.305,28.213c0.711,2.487,1.397,5.022,2.058,7.604c-13.499,5.899-27.432,12.937-41.495,20.959
			C331.535,100.346,317.602,93.308,304.105,87.41z M294.637,249.903c2.827,2.064,5.687,4.112,8.58,6.143
			c7.492,5.259,15.035,10.281,22.582,15.045c-8.838,4.759-17.581,9.089-26.14,12.941C297.583,273.2,295.902,261.772,294.637,249.903
			z M381.228,323.697c-10.09,29.375-23.742,47.622-35.631,47.622c-11.759,0-25.305-17.938-35.352-46.816
			c-2.245-6.453-4.3-13.33-6.156-20.57c13.501-5.905,27.444-12.948,41.494-20.956c14.071,8.027,28.013,15.07,41.52,20.972
			C385.324,310.878,383.364,317.478,381.228,323.697z M391.536,284.053c-8.564-3.851-17.314-8.184-26.164-12.953
			c7.568-4.771,15.122-9.798,22.607-15.053c2.895-2.033,5.756-4.081,8.584-6.146C395.298,261.775,393.615,273.21,391.536,284.053z
			 M398.655,223.257c-7.133,5.58-14.528,11.06-22.166,16.423c-10.236,7.185-20.584,13.919-30.903,20.128
			c-10.288-6.196-20.624-12.928-30.88-20.128c-7.637-5.361-15.032-10.84-22.165-16.422c-0.426-8.226-0.662-16.595-0.702-25.06
			c-0.004-0.791-0.006-22.349-0.007-29.548c7.348-5.768,14.989-11.442,22.874-16.978c10.26-7.202,20.6-13.936,30.891-20.134
			c10.291,6.198,20.631,12.932,30.891,20.134c7.63,5.356,15.031,10.842,22.16,16.418c0.473,9.06,0.713,18.277,0.713,27.586
			C399.361,205.002,399.123,214.216,398.655,223.257z M476.93,165.166c-4.568,0-8.285-3.716-8.285-8.284
			c0-4.568,3.716-8.285,8.285-8.285c4.567,0,8.284,3.716,8.284,8.285C485.214,161.449,481.497,165.166,476.93,165.166z
			 M429.905,92.957c29.841-8.62,52.618-7.931,59.449,1.8c4.746,6.762,2.892,19.22-5.007,34.829
			c-2.365-0.643-4.851-0.987-7.417-0.987c-15.595,0-28.282,12.687-28.282,28.282c0,5.836,1.777,11.264,4.818,15.774
			c-2.664,2.972-5.443,5.961-8.326,8.958c-8.451-7.96-17.511-15.866-27.078-23.62c-1.434-20.603-4.037-40.349-7.711-58.492
			C417.05,96.974,423.583,94.784,429.905,92.957z M419.257,185.115c4.005,3.5,7.891,7.019,11.648,10.544
			c-3.774,3.547-7.659,7.068-11.646,10.558c0.066-3.498,0.099-7.013,0.099-10.542C419.358,192.143,419.324,188.621,419.257,185.115z
			 M489.354,296.594c-6.831,9.731-29.611,10.419-59.449,1.801c-6.317-1.825-12.845-4.012-19.539-6.539
			c3.677-18.13,6.278-37.855,7.707-58.5c9.52-7.718,18.562-15.613,27.079-23.643c9.84,10.23,18.487,20.425,25.697,30.358
			C489.094,265.205,496.185,286.864,489.354,296.594z"/>
	</g>
</g>
<g>
	<g>
		<path d="M230.077,166.093c-0.13-0.641-0.32-1.27-0.57-1.87c-0.25-0.61-0.56-1.19-0.92-1.73c-0.36-0.55-0.78-1.06-1.24-1.52
			c-0.46-0.46-0.97-0.88-1.52-1.24c-0.54-0.36-1.12-0.67-1.72-0.92c-0.61-0.25-1.24-0.44-1.88-0.57
			c-3.24-0.649-6.699,0.41-9.019,2.73c-1.86,1.859-2.93,4.438-2.93,7.068c0,0.65,0.07,1.311,0.19,1.961
			c0.13,0.63,0.33,1.26,0.58,1.869c0.25,0.601,0.56,1.181,0.92,1.721c0.36,0.55,0.78,1.06,1.24,1.52c0.46,0.47,0.97,0.88,1.52,1.25
			c0.54,0.36,1.12,0.67,1.73,0.92c0.6,0.25,1.23,0.44,1.87,0.57c0.64,0.13,1.3,0.189,1.95,0.189c0.65,0,1.31-0.06,1.95-0.189
			c0.64-0.13,1.27-0.32,1.88-0.57c0.6-0.25,1.18-0.56,1.72-0.92c0.55-0.37,1.06-0.78,1.52-1.25c0.46-0.46,0.88-0.97,1.24-1.52
			c0.36-0.54,0.67-1.12,0.92-1.721c0.25-0.609,0.44-1.239,0.57-1.869c0.13-0.65,0.2-1.31,0.2-1.961
			C230.277,167.392,230.207,166.732,230.077,166.093z"/>
	</g>
</g>
<g>
	<g>
		<path d="M345.597,152.822c-23.631,0-42.855,19.225-42.855,42.855s19.225,42.855,42.855,42.855
			c23.631,0,42.855-19.225,42.855-42.855C388.452,172.047,369.228,152.822,345.597,152.822z M345.597,218.533
			c-12.603,0-22.858-10.255-22.858-22.858c0-12.603,10.255-22.858,22.858-22.858c12.603,0,22.858,10.255,22.858,22.858
			C368.455,208.279,358.2,218.533,345.597,218.533z"/>
	</g>
</g>
<g>
	<g>
		<path d="M398.098,430.87h-93.133c2.165-11.781-1.307-24.412-10.432-33.536l-55.484-54.596
			c-10.423-10.256-24.215-15.904-38.836-15.904H9.999c-5.522,0-9.999,4.477-9.999,9.999v165.131c0,5.521,4.476,9.999,9.999,9.999
			h110.093c5.522,0,9.999-4.477,9.999-9.999v-45.323l26.659,34.715c9.91,12.903,25.538,20.607,41.808,20.607h199.541
			c22.319,0,40.477-18.157,40.477-40.476v-0.139C438.577,449.028,420.417,430.87,398.098,430.87z M110.093,491.966H90.986v-81.823
			c0-5.521-4.476-9.999-9.999-9.999s-9.999,4.477-9.999,9.999v81.823H19.997V346.831h90.096V491.966z M130.091,346.831h70.124
			c9.341,0.001,18.151,3.608,24.81,10.162l55.427,54.54c6.877,6.876,6.877,18.064,0,24.94l-0.089,0.089
			c-6.877,6.875-18.064,6.876-24.951-0.011l-59.888-59.699c-1.875-1.869-4.413-2.918-7.059-2.918h-58.374V346.831z M418.581,471.485
			L418.581,471.485c-0.001,11.292-9.188,20.479-20.481,20.479H198.558c-10.098,0-19.797-4.781-25.948-12.79l-42.508-55.352
			l0.1-29.892h54.131l56.951,56.771c7.337,7.336,16.974,11.004,26.61,11.004c9.564,0,19.126-3.613,26.442-10.838H398.1
			c11.293,0,20.48,9.188,20.48,20.479V471.485z"/>
	</g>
</g>
<g>
	<g>
		<path d="M90.787,371.523c-0.12-0.63-0.32-1.261-0.57-1.87c-0.25-0.601-0.56-1.18-0.92-1.72c-0.36-0.551-0.78-1.061-1.24-1.521
			c-0.46-0.46-0.97-0.88-1.52-1.25c-0.54-0.36-1.12-0.67-1.73-0.92c-0.6-0.25-1.23-0.44-1.87-0.57c-1.29-0.26-2.61-0.26-3.899,0
			c-0.64,0.13-1.27,0.32-1.88,0.57c-0.6,0.25-1.18,0.56-1.72,0.92c-0.55,0.37-1.06,0.79-1.52,1.25c-0.46,0.46-0.88,0.97-1.25,1.521
			c-0.36,0.54-0.66,1.119-0.91,1.72c-0.25,0.609-0.45,1.24-0.58,1.87c-0.13,0.649-0.19,1.31-0.19,1.96c0,0.649,0.06,1.31,0.19,1.95
			c0.13,0.64,0.33,1.27,0.58,1.869c0.25,0.61,0.56,1.19,0.92,1.73c0.36,0.55,0.78,1.06,1.24,1.52c0.46,0.46,0.97,0.881,1.52,1.24
			c0.54,0.36,1.12,0.67,1.72,0.92c0.61,0.25,1.24,0.44,1.88,0.57c0.64,0.13,1.3,0.2,1.95,0.2s1.31-0.07,1.95-0.2
			c0.64-0.13,1.27-0.32,1.87-0.57c0.61-0.25,1.19-0.56,1.73-0.92c0.55-0.359,1.06-0.78,1.52-1.24c0.46-0.46,0.88-0.97,1.24-1.52
			c0.36-0.54,0.67-1.12,0.92-1.73c0.25-0.6,0.44-1.23,0.57-1.869c0.13-0.641,0.2-1.301,0.2-1.95
			C90.987,372.833,90.917,372.172,90.787,371.523z"/>
	</g>
</g>
<g>
</g>
<g>
</g>
<g>
</g>
<g>
</g>
<g>
</g>
<g>
</g>
<g>
</g>
<g>
</g>
<g>
</g>
<g>
</g>
<g>
</g>
<g>
</g>
<g>
</g>
<g>
</g>
<g>
</g>
</svg>
