<svg id="Capa_1" data-name="Capa 1" xmlns="http://www.w3.org/2000/svg" viewBox="0 0 332.8 391.28"><title>favicon</title><path d="M307.65,228.32A310.08,310.08,0,0,0,280,195.67c3.66-3.81,7.18-7.62,10.52-11.39a28.28,28.28,0,0,0,30.78-42.75c16.33-30.49,11.95-48.43,5-58.26C313.73,65.3,285.59,62,245,73.75q-9,2.61-18.56,6.12-.78-3-1.61-5.82a28.28,28.28,0,0,0-22-50.33C189.43,4.34,175.73,0,166.21,0c-10,0-24.91,4.77-39.13,27.52C118.86,40.7,111.66,58.63,106,79.87q-9.49-3.51-18.56-6.12C46.84,62,18.7,65.3,6.09,83.27c-6.62,9.44-11.26,27,4.27,56.78a10,10,0,0,0,17.74-9.24c-8.5-16.32-10.51-29.13-5.64-36C29.29,85,52.07,84.34,81.91,93a271.89,271.89,0,0,1,26.7,9.34,11,11,0,0,0,1.23.51,386.51,386.51,0,0,1,36.59,17.44q-11.33,7.14-22.6,15.06c-41.46,29.1-76.64,62.14-99,93-24.84,34.22-31.3,61.8-18.69,79.76,5.4,7.69,16.61,16.36,39.74,16.36H47a28.28,28.28,0,0,0,51.7-10.37q3.61-1.23,7.3-2.58c1.81,6.85,3.8,13.4,6,19.59,13.71,39.41,32.46,60.24,54.23,60.24,21.95,0,40.81-21.13,54.55-61.12q3-8.9,5.65-18.71Q235.92,315,245,317.6c15.93,4.61,30,6.9,41.85,6.9,18.45,0,31.85-5.5,39.52-16.42C339,290.12,332.49,262.54,307.65,228.32ZM92.46,185.2v13.1q0,4,.09,7.92-6-5.24-11.64-10.56Q86.49,190.41,92.46,185.2ZM70.85,317.51a8.29,8.29,0,1,1,8.29-8.29A8.3,8.3,0,0,1,70.85,317.51Zm24-23.26A28.28,28.28,0,0,0,43,304.39c-10.06-.41-17.22-3.09-20.52-7.8-6.83-9.73.26-31.39,18.5-56.52a290.78,290.78,0,0,1,25.7-30.36q12.78,12,27.08,23.65a455,455,0,0,0,7.7,58.48C99.22,292.68,97,293.49,94.84,294.25ZM207.63,43.31a8.29,8.29,0,1,1-8.29,8.28A8.28,8.28,0,0,1,207.63,43.31Zm9.53,98.13q-4.23-3.09-8.56-6.13Q197.35,127.4,186,120.25c8.85-4.77,17.59-9.1,26.14-12.94C214.21,118.15,215.89,129.58,217.16,141.44Zm-92.44-54C136.59,41,153.83,20,166.21,20c6.14,0,12.87,4.88,19.35,13.9A28.26,28.26,0,0,0,205.65,79.8q1.07,3.74,2.06,7.61a438.26,438.26,0,0,0-41.5,21A439.31,439.31,0,0,0,124.72,87.41ZM115.25,249.9c2.83,2.07,5.69,4.11,8.58,6.15q11.25,7.88,22.59,15c-8.84,4.76-17.59,9.09-26.14,12.94C118.2,273.2,116.52,261.77,115.25,249.9Zm86.59,73.8c-10.09,29.37-23.74,47.62-35.63,47.62s-25.3-17.94-35.35-46.82c-2.24-6.45-4.3-13.33-6.15-20.57A442.75,442.75,0,0,0,166.2,283a439.86,439.86,0,0,0,41.52,21C205.94,310.88,204,317.48,201.84,323.7Zm10.31-39.65c-8.56-3.85-17.31-8.18-26.16-12.95q11.35-7.16,22.61-15.05c2.89-2,5.75-4.08,8.58-6.15C215.91,261.77,214.23,273.21,212.15,284.05Zm7.12-60.79q-10.7,8.37-22.16,16.42c-10.24,7.18-20.59,13.92-30.91,20.13-10.29-6.2-20.62-12.93-30.88-20.13q-11.44-8-22.16-16.42c-.43-8.23-.66-16.6-.7-25.06,0-.79,0-22.35,0-29.55q11-8.66,22.87-17c10.26-7.2,20.6-13.93,30.89-20.13,10.29,6.2,20.63,12.93,30.89,20.13,7.63,5.36,15,10.84,22.16,16.42.48,9.06.72,18.28.72,27.59S219.74,214.22,219.27,223.26Zm78.28-58.09a8.29,8.29,0,1,1,8.28-8.29A8.3,8.3,0,0,1,297.55,165.17ZM250.52,93c29.84-8.62,52.62-7.93,59.45,1.8,4.75,6.76,2.89,19.22-5,34.83a27.9,27.9,0,0,0-7.41-1,28.26,28.26,0,0,0-23.47,44.05q-4,4.47-8.32,9c-8.45-8-17.51-15.86-27.08-23.62A458.27,458.27,0,0,0,231,99.5Q241,95.71,250.52,93Zm-10.65,92.15q6,5.25,11.65,10.55-5.66,5.33-11.64,10.56c.06-3.5.09-7,.09-10.54S239.94,188.62,239.87,185.11ZM310,296.59c-6.83,9.73-29.61,10.42-59.45,1.8Q241,295.66,231,291.86a453.71,453.71,0,0,0,7.71-58.5q14.28-11.58,27.08-23.65a290.78,290.78,0,0,1,25.7,30.36C309.71,265.2,316.8,286.86,310,296.59Z" transform="translate(0.19 -0.04)"/><path d="M50.69,166.09a10.1,10.1,0,0,0-.57-1.87,9.87,9.87,0,0,0-.92-1.73,9.72,9.72,0,0,0-2.76-2.76,10.15,10.15,0,0,0-1.72-.92,10.44,10.44,0,0,0-1.88-.57,10,10,0,0,0-12,9.8,10.84,10.84,0,0,0,.19,2,10.62,10.62,0,0,0,.58,1.87,10.15,10.15,0,0,0,.92,1.72,9.93,9.93,0,0,0,2.76,2.77,9.87,9.87,0,0,0,1.73.92,10.1,10.1,0,0,0,1.87.57,10.1,10.1,0,0,0,3.9,0,10.44,10.44,0,0,0,1.88-.57,10.15,10.15,0,0,0,1.72-.92,9.93,9.93,0,0,0,2.76-2.77,10.15,10.15,0,0,0,.92-1.72,10.58,10.58,0,0,0,.57-1.87,10,10,0,0,0,.2-2A9.85,9.85,0,0,0,50.69,166.09Z" transform="translate(0.19 -0.04)"/><path d="M166.21,152.82a42.86,42.86,0,1,0,42.86,42.86A42.9,42.9,0,0,0,166.21,152.82Zm0,65.71a22.86,22.86,0,1,1,22.86-22.86A22.88,22.88,0,0,1,166.21,218.53Z" transform="translate(0.19 -0.04)"/></svg>