<?xml version="1.0" encoding="iso-8859-1"?>
<!-- Generator: Adobe Illustrator 19.0.0, SVG Export Plug-In . SVG Version: 6.00 Build 0)  -->
<svg version="1.1" id="Capa_1" xmlns="http://www.w3.org/2000/svg" xmlns:xlink="http://www.w3.org/1999/xlink" x="0px" y="0px"
	 viewBox="0 0 512 512" style="enable-background:new 0 0 512 512;" xml:space="preserve">
<g>
	<g>
		<path d="M509.321,418.73c-0.018-0.048-0.038-0.097-0.058-0.145l-111.299-276.05v-36.001h8.895c5.522,0,10-4.477,10-10V49.335
			c0-5.523-4.478-10.001-10-10.001H265.776c-5.522,0-10.001,4.477-10.001,10.001v47.198c0,5.523,4.478,10,10.001,10h8.894v36.001
			l-21.478,53.273c-13.499-10.806-28.75-19.383-44.993-25.2v-66.071h15.958c5.523,0,10.001-4.477,10.001-10V48.807
			c0-5.523-4.477-10-10.001-10H87.465c-5.523,0-10.001,4.477-10.001,10v45.728c0,5.523,4.477,10,10.001,10h15.958v66.071
			c-28.456,10.191-53.866,28.852-72.146,53.123C10.816,250.897,0,283.283,0,317.383c0,85.914,69.897,155.81,155.81,155.81
			c10.222,0,20.218-0.99,29.896-2.879c4.732,1.912,9.76,2.879,14.994,2.879h271.234c13.208,0,25.555-6.501,33.03-17.39
			C512.439,444.914,514.068,431.054,509.321,418.73z M275.776,59.335h121.083v27.197H275.776V59.335z M97.466,84.535V58.807h116.688
			v25.727H97.466z M155.808,453.194c-74.884-0.002-135.807-60.925-135.807-135.811c0-60.27,38.71-112.507,96.326-129.984
			c4.215-1.278,7.097-5.165,7.097-9.57v-73.295h64.771v73.295c0,4.405,2.882,8.291,7.097,9.57
			c20.624,6.256,38.826,16.966,53.697,30.905c0.735,1.06,1.681,1.986,2.806,2.708c8.591,8.533,15.983,18.181,21.984,28.685
			c0.193,0.566,0.437,1.118,0.733,1.649c0.499,0.895,0.987,1.795,1.466,2.703c0.205,0.405,0.437,0.793,0.693,1.164
			c0.004,0.006,0.009,0.012,0.013,0.019c0.03,0.043,0.059,0.085,0.09,0.128c0.015,0.02,0.03,0.041,0.044,0.061
			c0.036,0.049,0.072,0.098,0.108,0.146c0.015,0.02,0.029,0.039,0.044,0.059c8.865,17.496,13.999,37.11,14.589,57.748
			c0.003,0.263,0.01,0.525,0.02,0.787c0.025,1.072,0.037,2.146,0.037,3.223C291.617,392.271,230.694,453.194,155.808,453.194z
			 M365.807,379.189h-66.971c5.5-12.68,9.361-26.228,11.317-40.377c2.684,0.892,5.553,1.375,8.532,1.375
			c14.956,0,27.123-12.168,27.123-27.123c0-14.957-12.168-27.124-27.123-27.124c-3.472,0-6.794,0.656-9.849,1.851
			c-1.852-9.688-4.619-19.137-8.27-28.254h83.136l59.187,153.656H278.603c3.502-4.478,6.764-9.151,9.767-14.002h77.436
			c5.522,0,10-4.477,10-10C375.807,383.666,371.329,379.189,365.807,379.189z M296.638,239.533l11.307-29.352h56.746l11.306,29.352
			H296.638z M311.561,313.037c0.014-3.916,3.204-7.097,7.123-7.097c3.927,0,7.122,3.195,7.122,7.123
			c0,3.927-3.195,7.122-7.122,7.122c-3.792,0-6.901-2.978-7.111-6.718C311.569,313.324,311.565,313.18,311.561,313.037z
			 M488.474,444.484c-3.799,5.534-9.828,8.708-16.54,8.708h-239.81c10.008-5.645,19.332-12.365,27.816-20.001h197.516
			c3.296,0,6.38-1.624,8.244-4.341c1.865-2.717,2.272-6.178,1.088-9.253l-85.9-223.01c-1.487-3.86-5.196-6.406-9.332-6.406H301.08
			c-4.136,0-7.845,2.546-9.332,6.405l-10.779,27.981c-0.208-0.28-0.416-0.559-0.626-0.838c-3.546-4.708-7.36-9.204-11.414-13.47
			l25.015-62.045c0.479-1.189,0.726-2.458,0.726-3.739v-37.941h83.293v37.941c0,1.281,0.246,2.551,0.726,3.739l111.992,277.769
			C493.063,432.229,492.26,438.969,488.474,444.484z"/>
	</g>
</g>
<g>
	<g>
		<path d="M373.442,315.94c-14.957,0-27.124,12.169-27.124,27.124c0,14.957,12.168,27.123,27.124,27.123
			c14.957,0,27.124-12.168,27.124-27.123C400.566,328.108,388.399,315.94,373.442,315.94z M373.442,350.187
			c-3.928,0-7.123-3.195-7.123-7.122c0-3.928,3.195-7.123,7.123-7.123c3.928,0,7.123,3.195,7.123,7.123
			C380.565,346.992,377.37,350.187,373.442,350.187z"/>
	</g>
</g>
<g>
	<g>
		<path d="M412.281,387.237c-0.13-0.64-0.32-1.27-0.57-1.87c-0.25-0.61-0.56-1.19-0.92-1.73c-0.359-0.55-0.779-1.06-1.239-1.52
			c-0.471-0.46-0.98-0.88-1.521-1.24c-0.55-0.36-1.13-0.67-1.729-0.92c-0.601-0.25-1.23-0.44-1.87-0.57c-1.29-0.26-2.62-0.26-3.91,0
			c-0.641,0.13-1.271,0.32-1.87,0.57c-0.6,0.25-1.18,0.56-1.73,0.92c-0.55,0.36-1.06,0.78-1.52,1.24c-0.46,0.46-0.88,0.97-1.24,1.52
			c-0.359,0.54-0.67,1.12-0.92,1.73c-0.25,0.6-0.439,1.23-0.57,1.87c-0.13,0.64-0.199,1.3-0.199,1.95c0,2.64,1.069,5.21,2.93,7.07
			c0.46,0.47,0.97,0.88,1.52,1.25c0.551,0.36,1.131,0.67,1.73,0.92c0.6,0.25,1.229,0.44,1.87,0.57c0.649,0.13,1.3,0.19,1.96,0.19
			c0.649,0,1.31-0.06,1.95-0.19s1.27-0.32,1.87-0.57c0.6-0.25,1.18-0.56,1.729-0.92c0.54-0.37,1.05-0.78,1.521-1.25
			c1.859-1.86,2.93-4.43,2.93-7.07C412.481,388.537,412.411,387.876,412.281,387.237z"/>
	</g>
</g>
<g>
	<g>
		<path d="M251.234,252.707c-1.861-2.739-4.958-4.378-8.27-4.378H68.657c-3.312,0-6.409,1.64-8.27,4.378
			C47.377,271.846,40.5,294.211,40.5,317.383c0,63.582,51.728,115.31,115.31,115.31s115.31-51.728,115.31-115.31
			C271.12,294.21,264.243,271.846,251.234,252.707z M155.81,412.692c-52.554,0-95.309-42.755-95.309-95.309
			c0-17.406,4.693-34.257,13.621-49.055h163.376c8.927,14.798,13.621,31.649,13.621,49.055
			C251.119,369.937,208.364,412.692,155.81,412.692z"/>
	</g>
</g>
<g>
	<g>
		<path d="M101.229,274.593c-14.775,0-26.794,12.021-26.794,26.794c0,14.775,12.021,26.794,26.794,26.794
			c14.775,0.001,26.794-12.02,26.794-26.794C128.023,286.613,116.004,274.593,101.229,274.593z M101.229,308.182
			c-3.746,0-6.793-3.047-6.793-6.793c0-3.746,3.047-6.793,6.793-6.793c3.746,0,6.793,3.047,6.793,6.793
			C108.022,305.134,104.975,308.182,101.229,308.182z"/>
	</g>
</g>
<g>
	<g>
		<path d="M131.911,330.51c-16.912,0-30.67,13.759-30.67,30.671s13.759,30.67,30.67,30.67c16.912,0,30.671-13.759,30.671-30.67
			C162.581,344.269,148.823,330.51,131.911,330.51z M131.911,371.85c-5.883,0-10.669-4.786-10.669-10.669
			c0-5.883,4.786-10.67,10.669-10.67c5.883,0,10.67,4.786,10.67,10.67C142.58,367.064,137.794,371.85,131.911,371.85z"/>
	</g>
</g>
<g>
	<g>
		<path d="M229.462,222.889c-0.13-0.64-0.32-1.26-0.57-1.87c-0.25-0.6-0.56-1.18-0.92-1.72c-0.36-0.55-0.78-1.06-1.24-1.53
			c-0.46-0.46-0.97-0.87-1.52-1.24c-0.54-0.36-1.12-0.67-1.73-0.92c-0.6-0.25-1.23-0.44-1.87-0.57c-1.29-0.26-2.62-0.26-3.91,0
			c-0.63,0.13-1.26,0.32-1.87,0.57c-0.6,0.25-1.18,0.56-1.72,0.92c-0.55,0.37-1.06,0.78-1.52,1.24c-0.46,0.47-0.88,0.98-1.25,1.53
			c-0.36,0.54-0.67,1.12-0.92,1.72c-0.25,0.61-0.44,1.23-0.57,1.87c-0.13,0.65-0.19,1.31-0.19,1.96c0,0.65,0.06,1.31,0.19,1.95
			s0.32,1.27,0.57,1.87c0.25,0.61,0.56,1.19,0.92,1.73c0.37,0.55,0.79,1.06,1.25,1.52c0.46,0.46,0.97,0.88,1.52,1.24
			c0.54,0.36,1.12,0.67,1.72,0.92c0.61,0.25,1.24,0.44,1.87,0.57c0.65,0.13,1.31,0.2,1.96,0.2c0.65,0,1.31-0.07,1.95-0.2
			s1.27-0.32,1.87-0.57c0.61-0.25,1.19-0.56,1.73-0.92c0.55-0.36,1.06-0.78,1.52-1.24s0.88-0.97,1.24-1.52
			c0.36-0.54,0.67-1.12,0.92-1.73c0.25-0.6,0.44-1.23,0.57-1.87s0.2-1.3,0.2-1.95C229.662,224.189,229.592,223.539,229.462,222.889z
			"/>
	</g>
</g>
<g>
	<g>
		<path d="M184.132,214.845H91.961c-5.523,0-10.001,4.477-10.001,10c0,5.522,4.477,10.001,10.001,10.001h92.172
			c5.523,0,10.001-4.477,10.001-10.001C194.133,219.322,189.656,214.845,184.132,214.845z"/>
	</g>
</g>
<g>
</g>
<g>
</g>
<g>
</g>
<g>
</g>
<g>
</g>
<g>
</g>
<g>
</g>
<g>
</g>
<g>
</g>
<g>
</g>
<g>
</g>
<g>
</g>
<g>
</g>
<g>
</g>
<g>
</g>
</svg>
