<svg id="Capa_1" data-name="Capa 1" xmlns="http://www.w3.org/2000/svg" viewBox="0 0 476.68 434.55"><title>follow</title><path d="M494.34,120.47V441.3a32.09,32.09,0,0,1-32.06,32.06H49.72A32.09,32.09,0,0,1,17.66,441.3V120.47a32.08,32.08,0,0,1,32.06-32h75.43a8.35,8.35,0,0,1,0,16.69H49.72a15.38,15.38,0,0,0-15.38,15.35v42.9H118a8.34,8.34,0,1,1,0,16.68H34.34V441.3a15.38,15.38,0,0,0,15.38,15.37H462.28a15.38,15.38,0,0,0,15.38-15.37V180.05H394a8.34,8.34,0,1,1,0-16.68h83.68v-42.9a15.38,15.38,0,0,0-15.38-15.35H385.4a8.35,8.35,0,1,1,0-16.69h76.88A32.08,32.08,0,0,1,494.34,120.47Z" transform="translate(-17.66 -38.81)"/><ellipse cx="49.17" cy="95.23" rx="7.74" ry="7.75"/><ellipse cx="75.78" cy="95.23" rx="7.74" ry="7.75"/><ellipse cx="102.4" cy="95.07" rx="7.74" ry="7.75"/><path d="M256,264.94c62.05,0,112.53-50.72,112.53-113.07S318.05,38.81,256,38.81,143.46,89.53,143.46,151.87,194,264.94,256,264.94Zm0-209.45c52.85,0,95.85,43.24,95.85,96.38s-43,96.38-95.85,96.38S160.15,205,160.15,151.87,203.15,55.49,256,55.49Z" transform="translate(-17.66 -38.81)"/><path d="M198.29,206.1h26a8.32,8.32,0,0,0,8-6.22A53.09,53.09,0,0,0,243.06,201h50.13a18.22,18.22,0,0,0,18.1-16.09,20.64,20.64,0,0,0,6.91-21.18,19.41,19.41,0,0,0,3.85-11.7,18.91,18.91,0,0,0-2.34-9.11,21.45,21.45,0,0,0,2.34-9.7,19.37,19.37,0,0,0-10.28-17.07,19.14,19.14,0,0,0-9.07-2.29l-24.86,0a127.89,127.89,0,0,0,1.42-25.26l0-.71a15.75,15.75,0,0,0-.35-2.62,21.49,21.49,0,0,0-18.76-16.51l-1.62-.19a13.81,13.81,0,0,0-15.43,13.81v6.4A34.22,34.22,0,0,1,233,113.06l-4,4a8.23,8.23,0,0,0-4.7-1.46h-26a8.35,8.35,0,0,0-8.34,8.34v73.86A8.35,8.35,0,0,0,198.29,206.1Zm46.48-81.22a50.92,50.92,0,0,0,15-36.15v-3a4.52,4.52,0,0,1,2.8,2.85l0,.72a110.94,110.94,0,0,1-1.83,25.41l-1.12,5.92a8.34,8.34,0,0,0,8.19,9.9h0l34.87,0a2.58,2.58,0,0,1,1.24.34,2.68,2.68,0,0,1,1.41,2.34,4.77,4.77,0,0,1-1.37,3.33l-.64.62a8.34,8.34,0,0,0-.21,11.6l1.63,1.75a2.31,2.31,0,0,1,.6,1.62,2.65,2.65,0,0,1-1,2.08l-1,.8a8.35,8.35,0,0,0-2.58,9.55l1.13,2.91a4,4,0,0,1-1.29,4.61L298,174a8.36,8.36,0,0,0-3.31,6.66v2.13a1.51,1.51,0,0,1-1.53,1.49H243.06a36,36,0,0,1-10.4-1.51V136.94Zm-38.14,7.37H216v57.17h-9.34Z" transform="translate(-17.66 -38.81)"/><path d="M452.77,326.91H429.18a8.34,8.34,0,0,0-8.35,8.34v47.82a8.35,8.35,0,0,0,16.69,0V343.59h15.25a8.34,8.34,0,1,0,0-16.68Z" transform="translate(-17.66 -38.81)"/><path d="M296.24,283.44v50.61H283.17V309.34a8.33,8.33,0,0,0-8.34-8.34H228.07a8.33,8.33,0,0,0-8.34,8.34V431.8a8.34,8.34,0,0,0,16.68,0V317.68h30.08v24.71a8.33,8.33,0,0,0,8.34,8.34h29.75a8.33,8.33,0,0,0,8.34-8.34V291.78h48.77v48.06a8.34,8.34,0,0,0,16.68,0v-56.4a8.34,8.34,0,0,0-8.34-8.35H304.58A8.34,8.34,0,0,0,296.24,283.44Z" transform="translate(-17.66 -38.81)"/><path d="M191.93,402a8.34,8.34,0,0,0,8.34-8.34v-28a8.34,8.34,0,0,0-8.34-8.34H154.25V313a8.34,8.34,0,0,0-8.34-8.34H88.39A8.34,8.34,0,0,0,80,313V404.2H59.22a8.35,8.35,0,0,0,0,16.69H88.39a8.35,8.35,0,0,0,8.34-8.34V321.32h40.83v44.34a8.35,8.35,0,0,0,8.35,8.35h37.67v19.61A8.36,8.36,0,0,0,191.93,402Z" transform="translate(-17.66 -38.81)"/><path d="M114.25,213.75a24.54,24.54,0,0,0-23.63,2.45,24.41,24.41,0,0,0-4.42-2.45,24.71,24.71,0,0,0-32.27,32.44A34.23,34.23,0,0,0,61.8,257.6l2.36,2.28a98.24,98.24,0,0,0,13.92,11.18L86,276.32a8.32,8.32,0,0,0,8.84.25l3.62-2.12A98.59,98.59,0,0,0,120.33,257,35,35,0,0,0,127,247l.39-.89a24.74,24.74,0,0,0-13.1-32.37ZM112,239.63l-.3.7a18.18,18.18,0,0,1-3.48,5.26,81.79,81.79,0,0,1-17.29,14l-3.59-2.39a81.74,81.74,0,0,1-11.56-9.28l-2.37-2.28a17.87,17.87,0,0,1-4.1-6,8.13,8.13,0,0,1-.62-3.13,8,8,0,0,1,.63-3.14,8.05,8.05,0,0,1,4.24-4.27,7.85,7.85,0,0,1,3.08-.62,7.66,7.66,0,0,1,3.07.62,7.82,7.82,0,0,1,2.52,1.71,9.32,9.32,0,0,1,.66.75,9,9,0,0,1,.59.88,8.33,8.33,0,0,0,7.18,4.1h0a8.35,8.35,0,0,0,7.19-4.12,7.41,7.41,0,0,1,.57-.85,7.9,7.9,0,0,1,3.19-2.48,8,8,0,0,1,6.15,0,7.82,7.82,0,0,1,2.52,1.71,8,8,0,0,1,1.72,2.55,8.19,8.19,0,0,1,.63,3.14A8.37,8.37,0,0,1,112,239.63Z" transform="translate(-17.66 -38.81)"/><path d="M455,225.78a21,21,0,0,0-23.09-4.53,21.92,21.92,0,0,0-2.73,1.4,21.1,21.1,0,0,0-19.13-1.4,21.18,21.18,0,0,0-11.18,11.23,21.2,21.2,0,0,0,0,16.4h0a1,1,0,0,0,0,.1,28.71,28.71,0,0,0,6.53,9.46l1.84,1.78a79.51,79.51,0,0,0,11.11,8.92l6.18,4.1a8.36,8.36,0,0,0,8.83.25l2.82-1.66a78.75,78.75,0,0,0,17.45-13.89,29.12,29.12,0,0,0,5.49-8.29l.33-.76A21.17,21.17,0,0,0,455,225.78Zm-38,20.65a11.9,11.9,0,0,1-2.75-4,.25.25,0,0,0,0-.07,4.57,4.57,0,0,1-.32-1.69,4.41,4.41,0,0,1,.34-1.73,4.47,4.47,0,0,1,.94-1.41,4.31,4.31,0,0,1,4.74-.94,4.17,4.17,0,0,1,1.73,1.35,4.07,4.07,0,0,1,.33.48,8.34,8.34,0,0,0,14.39,0,4.29,4.29,0,0,1,.32-.47,3.62,3.62,0,0,1,.36-.42,4.45,4.45,0,0,1,1.38-.94,4.36,4.36,0,0,1,5.68,2.35,4.56,4.56,0,0,1,.34,1.73,4.29,4.29,0,0,1-.34,1.72l-.22.53a12.72,12.72,0,0,1-2.37,3.56,62.09,62.09,0,0,1-12.1,9.95l-1.81-1.2a62.23,62.23,0,0,1-8.75-7Z" transform="translate(-17.66 -38.81)"/><path d="M387.89,366.45a28,28,0,0,0-21.77,0,27.72,27.72,0,0,0-6,3.48,28,28,0,0,0-42.58,33.32,39.66,39.66,0,0,0,9.08,13.17l2.85,2.74A116.66,116.66,0,0,0,346,432.41l9.54,6.34a8.36,8.36,0,0,0,4.61,1.39,8.27,8.27,0,0,0,4.22-1.15l4.36-2.55a116.69,116.69,0,0,0,25.93-20.65,40.46,40.46,0,0,0,7.65-11.56l.46-1.06a28.06,28.06,0,0,0-14.86-36.72Zm-.52,30.24-.37.86a23.81,23.81,0,0,1-4.5,6.8A100.68,100.68,0,0,1,360.41,422l-5.21-3.45a100.89,100.89,0,0,1-14.15-11.36l-2.84-2.74a23.41,23.41,0,0,1-5.32-7.72,11.4,11.4,0,0,1,2.43-12.47,11.16,11.16,0,0,1,3.58-2.42,11,11,0,0,1,4.36-.89,11.07,11.07,0,0,1,7.93,3.32,12.68,12.68,0,0,1,.92,1,11.64,11.64,0,0,1,.83,1.24,8.34,8.34,0,0,0,14.38,0,11.68,11.68,0,0,1,1.75-2.29,11.12,11.12,0,0,1,12.3-2.42,11,11,0,0,1,3.57,2.42,11.26,11.26,0,0,1,3.31,8A11.2,11.2,0,0,1,387.37,396.69Z" transform="translate(-17.66 -38.81)"/></svg>