<svg id="Capa_1" data-name="Capa 1" xmlns="http://www.w3.org/2000/svg" viewBox="0 0 434.37 512"><defs><style>.cls-1{fill:#fff;}</style></defs><title>logo_w</title><path class="cls-1" d="M470,356.59c-4.69-16.49-14.53-35.14-29.25-55.42A413.77,413.77,0,0,0,402.24,256q9.19-9.42,17.39-18.78a34.21,34.21,0,0,0,38.06-52.75c22-40,16.58-63.09,7.84-75.54C457.16,97,443,90.25,423.32,88.87c-17.1-1.19-38,1.72-62.05,8.68q-13.47,3.89-27.75,9.29-1.74-6.81-3.64-13.31A34.22,34.22,0,0,0,303,31.75C285.69,5.71,268.1,0,256,0c-32.18,0-60.16,38.76-77.53,106.84-9.49-3.59-18.76-6.7-27.73-9.29-24.09-7-45-9.88-62.06-8.68C69,90.25,54.85,97,46.47,108.91c-8.69,12.38-14.3,35.7,8.34,76.45a10,10,0,0,0,17.48-9.72c-13.74-24.73-17.09-44.35-9.45-55.24,12.78-18.2,58.08-15.53,118.39,9a10.2,10.2,0,0,0,1,.4,526.74,526.74,0,0,1,54,26c-11.53,7.15-23.07,14.77-34.52,22.81-54.66,38.37-101,81.88-130.5,122.51C56.49,321.45,46.65,340.1,42,356.59c-5.37,18.93-3.86,34.58,4.51,46.5,6.71,9.56,20.76,20.29,50,20.29,1.11,0,2.24,0,3.39,0a34.22,34.22,0,0,0,63.77-12.91q7.31-2.43,14.83-5.28,3.78,14.76,8.33,28.05c8.15,23.7,17.75,42.47,28.56,55.77,12.4,15.28,26.08,23,40.65,23,11.9,0,29.31-5.55,46.52-31,1,.09,2,.14,3,.14a34.21,34.21,0,0,0,23.3-59.28q2.46-8.11,4.66-16.72c9.5,3.59,18.77,6.7,27.74,9.29,20.58,5.94,38.81,8.94,54.35,8.94q4,0,7.71-.26c19.63-1.38,33.83-8.12,42.2-20S475.41,375.52,470,356.59ZM310.88,50.84a14.23,14.23,0,1,1-14.23,14.23A14.24,14.24,0,0,1,310.88,50.84Zm16.6,140.25q-8.44-6.28-17.19-12.43-17.18-12.06-34.51-22.8c14.74-8.13,29.31-15.36,43.47-21.58A563.87,563.87,0,0,1,327.48,191.09ZM197.2,114.41C211.54,56.77,234.28,20,256,20c11.82,0,22.19,10.75,29.74,21.86a34.21,34.21,0,0,0,25,57.43q2.14,7.35,4.08,15.12A574.91,574.91,0,0,0,256,144.05,577.87,577.87,0,0,0,197.2,114.41ZM129.63,420.69a14.23,14.23,0,1,1,14.23-14.23A14.24,14.24,0,0,1,129.63,420.69ZM160,390.57a34.23,34.23,0,0,0-64.41,12.82c-12.73-.09-26.28-2.65-32.69-11.79C48.91,371.75,71.46,324,124,270q18.33,17.47,39.12,34.25a596.14,596.14,0,0,0,10.8,81.2Q166.83,388.22,160,390.57Zm24.54-69.68q8.46,6.3,17.22,12.45c11.44,8,23,15.64,34.49,22.79-14.73,8.11-29.3,15.34-43.47,21.58A558.15,558.15,0,0,1,184.49,320.89ZM283.6,473.16C276.37,483,266.79,492,256,492c-21.33,0-44.14-35.53-58.82-94.43A580.81,580.81,0,0,0,256,367.94a575.42,575.42,0,0,0,58.84,29.65q-2,8-4.2,15.49a33.73,33.73,0,0,0-5.05-.38,34.22,34.22,0,0,0-22,60.46Zm22-12a14.23,14.23,0,1,1,14.22-14.23A14.24,14.24,0,0,1,305.57,461.16Zm13.69-83.43c-14.17-6.23-28.74-13.47-43.49-21.59,11.55-7.16,23.09-14.78,34.52-22.8q8.76-6.15,17.19-12.44A561.09,561.09,0,0,1,319.26,377.73Zm10.21-83.53Q314.68,305.81,298.8,317c-14.18,9.95-28.52,19.26-42.81,27.8-14.26-8.53-28.58-17.83-42.79-27.8q-15.88-11.14-30.68-22.78-1-18.49-1-38.19a10,10,0,0,0-20,0q0,10.68.3,21.23Q149.54,266.75,138.23,256a656.88,656.88,0,0,1,75-60.95c14.21-10,28.55-19.28,42.81-27.81,14,8.36,28.29,17.63,42.79,27.81q16.11,11.31,30.66,22.76c.69,12.54,1,25.31,1,38.21S330.15,281.67,329.47,294.2ZM430,218.82a14.23,14.23,0,1,1,14.23-14.23A14.25,14.25,0,0,1,430,218.82ZM366.82,116.76c41.53-12,72.31-10.64,82.34,3.64,7.24,10.32,4.41,29-7.67,51.94a34.21,34.21,0,0,0-38.38,53.36Q396,233.77,388,241.93c-12.12-11.54-25.22-23-39.13-34.23a599.23,599.23,0,0,0-10.81-81.19C347.94,122.7,357.55,119.44,366.82,116.76Zm-16.64,118q12.51,10.68,23.59,21.23-11.29,10.75-23.58,21.25.3-10.55.3-21.23T350.18,234.75Zm99,156.85c-10,14.28-40.81,15.64-82.34,3.64-9.27-2.68-18.88-5.94-28.74-9.75a598.59,598.59,0,0,0,10.81-81.19Q369.62,287.56,388,270C440.54,324,463.09,371.75,449.16,391.6Z" transform="translate(-38.82)"/><path class="cls-1" d="M102.39,220.08a10.1,10.1,0,0,0-.57-1.87,10.63,10.63,0,0,0-.92-1.73,9.72,9.72,0,0,0-2.76-2.76,10.63,10.63,0,0,0-1.73-.92,10.1,10.1,0,0,0-1.87-.57,9.9,9.9,0,0,0-3.91,0,10.1,10.1,0,0,0-1.87.57,9.93,9.93,0,0,0-5.41,5.41,10.1,10.1,0,0,0-.57,1.87,10,10,0,0,0-.2,2,9.85,9.85,0,0,0,.2,2,10.1,10.1,0,0,0,.57,1.87,10,10,0,0,0,2.16,3.25A10,10,0,0,0,87,230.35a10.63,10.63,0,0,0,1.73.92,10.1,10.1,0,0,0,1.87.57,9.66,9.66,0,0,0,3.91,0,10.1,10.1,0,0,0,1.87-.57,10,10,0,0,0,3.25-2.16,11.27,11.27,0,0,0,1.24-1.52,10.63,10.63,0,0,0,.92-1.73,10.1,10.1,0,0,0,.57-1.87,9.84,9.84,0,0,0,.19-2A9.94,9.94,0,0,0,102.39,220.08Z" transform="translate(-38.82)"/><path class="cls-1" d="M256,196.43A59.57,59.57,0,1,0,315.57,256,59.64,59.64,0,0,0,256,196.43Zm0,99.13A39.57,39.57,0,1,1,295.57,256,39.6,39.6,0,0,1,256,295.56Z" transform="translate(-38.82)"/></svg>