<?xml version="1.0" encoding="iso-8859-1"?>
<!-- Generator: Adobe Illustrator 19.0.0, SVG Export Plug-In . SVG Version: 6.00 Build 0)  -->
<svg version="1.1" id="Capa_1" xmlns="http://www.w3.org/2000/svg" xmlns:xlink="http://www.w3.org/1999/xlink" x="0px" y="0px"
	 viewBox="0 0 511.998 511.998" style="enable-background:new 0 0 511.998 511.998;" xml:space="preserve">
<g>
	<g>
		<path d="M470.035,356.586c-4.682-16.486-14.521-35.131-29.245-55.415c-10.749-14.809-23.738-30-38.552-45.186
			c6.128-6.282,11.944-12.564,17.392-18.782c3.282,1.049,6.777,1.617,10.403,1.617c18.873,0,34.228-15.355,34.228-34.227
			c0-7.524-2.44-14.488-6.57-20.143c21.971-40.012,16.577-63.085,7.835-75.538c-8.369-11.922-22.568-18.664-42.204-20.04
			c-17.1-1.195-37.975,1.722-62.055,8.678c-8.978,2.593-18.247,5.702-27.742,9.292c-1.16-4.541-2.376-8.982-3.647-13.314
			c9.176-6.146,15.23-16.608,15.23-28.458c0-18.873-15.355-34.228-34.228-34.228c-2.697,0-5.323,0.314-7.841,0.907
			C285.694,5.712,268.095,0,256.001,0c-32.184,0-60.161,38.755-77.527,106.839c-9.493-3.589-18.762-6.698-27.739-9.291
			c-24.08-6.957-44.96-9.876-62.055-8.678c-19.636,1.377-33.835,8.119-42.205,20.04c-8.693,12.384-14.303,35.699,8.338,76.446
			c2.683,4.827,8.771,6.567,13.598,3.884c4.828-2.683,6.567-8.771,3.884-13.598c-13.741-24.73-17.098-44.348-9.452-55.241
			c12.777-18.202,58.08-15.53,118.384,9.011c0.312,0.147,0.635,0.279,0.966,0.394c16.967,6.952,35.107,15.626,54.034,26.046
			c-11.531,7.15-23.07,14.769-34.521,22.808c-54.661,38.373-101.005,81.881-130.497,122.51
			c-14.724,20.284-24.563,38.929-29.245,55.415c-5.377,18.935-3.86,34.581,4.509,46.503c6.711,9.559,20.759,20.295,49.995,20.295
			c1.109,0,2.24-0.016,3.393-0.047c5.892,10.355,17.03,17.354,29.771,17.354c17.53,0,32.024-13.247,33.998-30.256
			c4.872-1.622,9.819-3.385,14.83-5.282c2.517,9.833,5.298,19.206,8.334,28.043c8.142,23.706,17.749,42.471,28.552,55.775
			c12.408,15.28,26.086,23.028,40.651,23.028c11.908,0,29.315-5.549,46.52-30.975c1.003,0.089,2.018,0.134,3.044,0.134
			c18.873,0,34.228-15.354,34.228-34.227c0-9.882-4.21-18.8-10.93-25.053c1.643-5.404,3.199-10.982,4.665-16.718
			c9.493,3.589,18.762,6.698,27.739,9.291c20.572,5.943,38.806,8.94,54.343,8.94c2.649,0,5.221-0.087,7.712-0.262
			c19.636-1.376,33.835-8.119,42.204-20.04C473.894,391.167,475.411,375.521,470.035,356.586z M310.88,50.841
			c7.845,0,14.228,6.382,14.228,14.227c0,7.845-6.382,14.228-14.228,14.228c-7.845,0-14.228-6.382-14.228-14.228
			C296.652,57.223,303.034,50.841,310.88,50.841z M327.475,191.094c-5.626-4.196-11.357-8.344-17.182-12.434
			c-11.449-8.037-22.987-15.655-34.516-22.804c14.745-8.121,29.311-15.352,43.475-21.579
			C322.823,152.113,325.583,171.201,327.475,191.094z M197.195,114.414C211.538,56.77,234.278,20,256.001,20
			c11.823,0,22.187,10.747,29.743,21.861c-5.64,6.105-9.091,14.26-9.091,23.207c0,18.822,15.272,34.145,34.076,34.227
			c1.434,4.896,2.796,9.939,4.083,15.117c-19.078,8.209-38.849,18.172-58.811,29.634
			C236.041,132.585,216.272,122.622,197.195,114.414z M129.635,420.69c-7.845,0-14.228-6.382-14.228-14.228
			c0-7.845,6.382-14.228,14.228-14.228c7.846,0,14.227,6.382,14.227,14.228S137.48,420.69,129.635,420.69z M159.945,390.572
			c-5.734-10.893-17.169-18.337-30.31-18.337c-17.837,0-32.531,13.715-34.091,31.153c-12.738-0.093-26.28-2.647-32.699-11.791
			c-13.934-19.849,8.617-67.639,61.144-121.56c12.224,11.653,25.293,23.096,39.116,34.256c1.93,28.756,5.58,56.168,10.803,81.194
			C169.19,387.308,164.533,389.005,159.945,390.572z M184.493,320.885c5.633,4.201,11.373,8.353,17.214,12.454
			c11.443,8.032,22.973,15.645,34.495,22.791c-14.734,8.109-29.305,15.343-43.473,21.577
			C189.238,360.322,186.428,341.3,184.493,320.885z M283.601,473.162c-7.234,9.829-16.809,18.837-27.601,18.837
			c-21.332,0-44.14-35.528-58.817-94.429c19.079-8.217,38.862-18.187,58.8-29.627c19.968,11.467,39.747,21.434,58.832,29.646
			c-1.32,5.307-2.719,10.474-4.195,15.487c-1.65-0.245-3.338-0.373-5.055-0.373c-18.873,0-34.228,15.354-34.228,34.228
			C271.337,457.452,276.109,466.879,283.601,473.162z M305.565,461.158c-7.845,0-14.228-6.382-14.228-14.227
			c0-7.845,6.382-14.228,14.228-14.228c7.845,0,14.228,6.382,14.228,14.228C319.793,454.776,313.41,461.158,305.565,461.158z
			 M319.26,377.725c-14.17-6.229-28.74-13.463-43.492-21.587c11.552-7.158,23.096-14.776,34.525-22.799
			c5.834-4.096,11.565-8.242,17.19-12.436C325.593,340.808,322.832,359.891,319.26,377.725z M329.468,294.201
			c-9.853,7.743-20.085,15.341-30.665,22.769c-14.181,9.955-28.524,19.259-42.815,27.802c-14.253-8.528-28.58-17.828-42.788-27.802
			c-10.585-7.431-20.822-15.033-30.68-22.781c-0.662-12.324-1.012-25.069-1.012-38.189c0-5.523-4.477-10-10-10s-10,4.477-10,10
			c0,7.124,0.103,14.203,0.305,21.225c-8.18-6.99-16.049-14.078-23.584-21.245c21.14-20.104,46.237-40.779,74.97-60.95
			c14.215-9.979,28.549-19.283,42.809-27.814c13.975,8.362,28.288,17.63,42.795,27.814c10.733,7.535,20.959,15.141,30.661,22.76
			c0.682,12.542,1.03,25.312,1.03,38.21C330.494,268.905,330.147,281.671,329.468,294.201z M430.033,218.819
			c-7.845,0-14.228-6.382-14.228-14.227c0-7.845,6.382-14.228,14.228-14.228s14.228,6.382,14.228,14.228
			S437.878,218.819,430.033,218.819z M366.817,116.763c41.533-11.999,72.315-10.639,82.339,3.639
			c7.241,10.314,4.411,28.977-7.667,51.935c-3.583-1.277-7.44-1.972-11.456-1.972c-18.873,0-34.228,15.354-34.228,34.228
			c0,7.958,2.73,15.291,7.303,21.11c-4.758,5.374-9.805,10.798-15.101,16.23c-12.117-11.541-25.221-23.008-39.127-34.232
			c-1.938-28.694-5.594-56.147-10.811-81.194C347.936,122.703,357.546,119.441,366.817,116.763z M350.183,234.748
			c8.338,7.117,16.205,14.209,23.59,21.231c-7.536,7.168-15.405,14.257-23.587,21.249c0.204-7.028,0.307-14.11,0.307-21.229
			C350.493,248.876,350.389,241.787,350.183,234.748z M449.156,391.597c-10.022,14.278-40.804,15.639-82.339,3.639
			c-9.269-2.678-18.876-5.939-28.741-9.741c5.22-25.041,8.874-52.478,10.809-81.193c13.828-11.163,26.9-22.609,39.127-34.265
			C440.54,323.958,463.09,371.749,449.156,391.597z"/>
	</g>
</g>
<g>
	<g>
		<path d="M102.391,220.079c-0.13-0.64-0.32-1.27-0.57-1.87c-0.25-0.6-0.56-1.18-0.92-1.73c-0.37-0.54-0.78-1.05-1.24-1.52
			c-0.47-0.46-0.98-0.87-1.52-1.24c-0.55-0.36-1.13-0.67-1.73-0.92c-0.6-0.25-1.23-0.44-1.87-0.57c-1.29-0.26-2.62-0.26-3.91,0
			c-0.64,0.13-1.27,0.32-1.87,0.57c-0.6,0.25-1.18,0.56-1.73,0.92c-0.54,0.37-1.06,0.78-1.52,1.24c-0.46,0.47-0.88,0.98-1.24,1.52
			c-0.36,0.55-0.67,1.13-0.92,1.73c-0.25,0.6-0.44,1.23-0.57,1.87c-0.13,0.65-0.2,1.3-0.2,1.96c0,0.65,0.07,1.31,0.2,1.95
			c0.13,0.64,0.32,1.27,0.57,1.87c0.249,0.601,0.559,1.181,0.92,1.73c0.36,0.54,0.78,1.05,1.24,1.52c0.46,0.46,0.98,0.88,1.52,1.24
			c0.55,0.36,1.13,0.67,1.73,0.92c0.6,0.25,1.23,0.44,1.87,0.57c0.65,0.13,1.3,0.2,1.95,0.2c0.66,0,1.31-0.07,1.96-0.2
			c0.64-0.13,1.27-0.32,1.87-0.57c0.6-0.25,1.18-0.56,1.73-0.92c0.54-0.36,1.05-0.78,1.52-1.24c0.46-0.47,0.87-0.98,1.24-1.52
			c0.36-0.55,0.67-1.13,0.92-1.73c0.25-0.6,0.44-1.23,0.57-1.87s0.19-1.3,0.19-1.95
			C102.581,221.379,102.521,220.729,102.391,220.079z"/>
	</g>
</g>
<g>
	<g>
		<path d="M256.001,196.435c-32.844,0-59.565,26.721-59.565,59.564c0,32.844,26.721,59.565,59.565,59.565
			s59.564-26.721,59.564-59.565S288.844,196.435,256.001,196.435z M256.001,295.564c-21.815,0-39.565-17.749-39.565-39.565
			c0-21.815,17.749-39.564,39.565-39.564c21.816,0,39.564,17.749,39.564,39.564C295.565,277.815,277.816,295.564,256.001,295.564z"
			/>
	</g>
</g>
<g>
</g>
<g>
</g>
<g>
</g>
<g>
</g>
<g>
</g>
<g>
</g>
<g>
</g>
<g>
</g>
<g>
</g>
<g>
</g>
<g>
</g>
<g>
</g>
<g>
</g>
<g>
</g>
<g>
</g>
</svg>
