<?xml version="1.0" encoding="iso-8859-1"?>
<!-- Generator: Adobe Illustrator 19.0.0, SVG Export Plug-In . SVG Version: 6.00 Build 0)  -->
<svg version="1.1" id="Capa_1" xmlns="http://www.w3.org/2000/svg" xmlns:xlink="http://www.w3.org/1999/xlink" x="0px" y="0px"
	 viewBox="0 0 511.999 511.999" style="enable-background:new 0 0 511.999 511.999;" xml:space="preserve">
<g>
	<g>
		<path d="M400.438,81.303h-18.939v-8.934c0-5.523-4.478-10-10-10h-47.971C320.781,27.519,291.542,0,255.998,0
			s-64.782,27.519-67.529,62.369h-47.971c-5.523,0-10,4.477-10,10v8.934H111.56c-28.915,0-52.438,23.524-52.438,52.438v325.82
			c0,28.915,23.523,52.438,52.438,52.438h288.877c28.915,0,52.439-23.523,52.439-52.438v-325.82
			C452.875,104.827,429.352,81.303,400.438,81.303z M150.498,82.369h47.96c2.789,0,5.452-1.165,7.345-3.214
			c1.893-2.049,2.845-4.795,2.624-7.576c-0.113-1.435-0.169-2.69-0.169-3.838c0-26.324,21.416-47.741,47.74-47.741
			c26.324,0,47.74,21.417,47.74,47.741c0,1.148-0.056,2.404-0.169,3.838c-0.221,2.781,0.73,5.527,2.624,7.576
			c1.893,2.049,4.556,3.214,7.345,3.214h47.96v51.069h-211V82.369z M140.498,153.438h231c5.522,0,10-4.477,10-10v-2.135h11.377V452
			H119.121V141.303h11.377v2.135C130.498,148.961,134.975,153.438,140.498,153.438z M432.876,459.562L432.876,459.562
			C432.875,477.448,418.323,492,400.437,492H111.56c-17.887,0-32.438-14.552-32.438-32.438v-325.82
			c0-17.887,14.552-32.438,32.438-32.438h18.938v20h-21.377c-5.522,0-10,4.477-10,10V462c0,5.523,4.478,10,10,10h293.754
			c5.522,0,10-4.477,10-10V131.303c0-5.523-4.478-10-10-10h-21.377v-20h18.939c17.887,0,32.439,14.552,32.439,32.438V459.562z"/>
	</g>
</g>
<g>
	<g>
		<path d="M368.8,308.418h-23.809l-17.155-29.714L343.24,263.3c3.905-3.905,3.905-10.237,0-14.143
			c-3.906-3.905-10.236-3.905-14.143,0l-17.901,17.901H271.92l-17.901-17.901c-3.906-3.905-10.236-3.905-14.143,0
			c-3.905,3.905-3.905,10.237,0,14.143l15.404,15.404l-17.057,29.543h-38.767l-17.73-17.73c-3.906-3.905-10.236-3.905-14.142,0.001
			c-3.905,3.905-3.905,10.237,0,14.142l15.944,15.944l-16.646,28.833h-23.685c-5.522,0-10,4.477-10,10c0,5.523,4.478,9.999,10,9.999
			h23.685l20.894,36.189c1.786,3.094,5.088,5,8.66,5h42.997l18.323,18.323c1.953,1.953,4.512,2.929,7.071,2.929
			c2.56,0,5.118-0.976,7.071-2.929c3.905-3.905,3.905-10.237,0-14.142l-15.559-15.559l17.211-29.811h41.789
			c3.572,0,6.874-1.906,8.66-5l20.795-36.018H368.8c5.522,0,10-4.477,10-10S374.322,308.418,368.8,308.418z M238.223,390.625
			h-36.015l-18.007-31.189l18.007-31.189h36.015l18.007,31.189L238.223,390.625z M309.565,349.436H273.55l-18.008-31.189
			l18.008-31.189h36.015l18.007,31.189L309.565,349.436z"/>
	</g>
</g>
<g>
	<g>
		<path d="M255.998,36.333c-17.318,0-31.407,14.089-31.407,31.407c0,17.319,14.089,31.408,31.407,31.408
			s31.407-14.089,31.407-31.408C287.406,50.422,273.317,36.333,255.998,36.333z M255.998,79.148c-6.29,0-11.407-5.118-11.407-11.408
			c0-6.289,5.117-11.407,11.407-11.407c6.29,0,11.407,5.117,11.407,11.407S262.289,79.148,255.998,79.148z"/>
	</g>
</g>
<g>
	<g>
		<path d="M171.427,211.38c-0.13-0.64-0.32-1.27-0.57-1.87c-0.25-0.6-0.559-1.18-0.92-1.73c-0.359-0.54-0.779-1.05-1.239-1.52
			c-0.46-0.46-0.971-0.88-1.52-1.24c-0.54-0.36-1.12-0.67-1.73-0.92c-0.601-0.25-1.23-0.44-1.87-0.57c-1.29-0.26-2.61-0.26-3.9,0
			c-0.64,0.13-1.27,0.32-1.87,0.57c-0.609,0.25-1.189,0.56-1.73,0.92c-0.55,0.36-1.061,0.78-1.52,1.24
			c-0.46,0.47-0.88,0.98-1.25,1.52c-0.359,0.55-0.66,1.13-0.91,1.73c-0.25,0.6-0.449,1.23-0.58,1.87
			c-0.13,0.65-0.189,1.3-0.189,1.95c0,0.66,0.06,1.31,0.189,1.96c0.131,0.64,0.33,1.27,0.58,1.87c0.25,0.6,0.551,1.18,0.91,1.73
			c0.37,0.54,0.79,1.05,1.25,1.52c0.46,0.46,0.971,0.87,1.52,1.24c0.54,0.36,1.12,0.67,1.73,0.92c0.601,0.25,1.23,0.44,1.87,0.57
			c0.64,0.13,1.3,0.2,1.95,0.2c0.65,0,1.31-0.07,1.95-0.2c0.64-0.13,1.27-0.32,1.87-0.57c0.609-0.25,1.189-0.56,1.73-0.92
			c0.55-0.36,1.061-0.78,1.52-1.24c0.46-0.47,0.88-0.98,1.239-1.52c0.36-0.55,0.67-1.13,0.92-1.73s0.44-1.23,0.57-1.87
			c0.13-0.65,0.2-1.3,0.2-1.96C171.628,212.68,171.557,212.03,171.427,211.38z"/>
	</g>
</g>
<g>
	<g>
		<path d="M350.37,203.335H198.294c-5.522,0-10,4.477-10,10c0,5.523,4.478,10,10,10H350.37c5.522,0,10-4.477,10-10
			C360.37,207.811,355.893,203.335,350.37,203.335z"/>
	</g>
</g>
<g>
	<g>
		<path d="M360.178,174.93c-0.13-0.64-0.32-1.26-0.57-1.87c-0.25-0.6-0.56-1.18-0.92-1.72c-0.37-0.55-0.79-1.06-1.25-1.53
			c-0.46-0.46-0.97-0.87-1.52-1.24c-0.54-0.36-1.12-0.67-1.72-0.92c-0.61-0.25-1.24-0.44-1.87-0.57c-1.29-0.26-2.62-0.26-3.91,0
			c-0.64,0.13-1.27,0.32-1.87,0.57c-0.61,0.25-1.19,0.56-1.73,0.92c-0.55,0.37-1.06,0.78-1.52,1.24c-0.46,0.47-0.88,0.98-1.24,1.53
			c-0.359,0.54-0.67,1.12-0.92,1.72c-0.25,0.61-0.45,1.23-0.57,1.87c-0.13,0.65-0.199,1.3-0.199,1.96c0,2.63,1.069,5.21,2.93,7.07
			c0.459,0.46,0.969,0.88,1.518,1.24c0.54,0.36,1.12,0.67,1.73,0.92c0.6,0.25,1.23,0.441,1.87,0.57c0.64,0.13,1.3,0.2,1.95,0.2
			c0.649,0,1.31-0.07,1.96-0.2c0.63-0.13,1.26-0.32,1.87-0.57c0.6-0.25,1.18-0.559,1.72-0.92c0.55-0.36,1.06-0.78,1.52-1.24
			c1.86-1.86,2.931-4.44,2.931-7.07C360.368,176.23,360.308,175.58,360.178,174.93z"/>
	</g>
</g>
<g>
	<g>
		<path d="M313.702,166.886H161.628c-5.523,0-10,4.477-10,10s4.477,10,10,10h152.075c5.522,0,10-4.477,10-10
			S319.224,166.886,313.702,166.886z"/>
	</g>
</g>
<g>
</g>
<g>
</g>
<g>
</g>
<g>
</g>
<g>
</g>
<g>
</g>
<g>
</g>
<g>
</g>
<g>
</g>
<g>
</g>
<g>
</g>
<g>
</g>
<g>
</g>
<g>
</g>
<g>
</g>
</svg>
