<?xml version="1.0" encoding="iso-8859-1"?>
<!-- Generator: Adobe Illustrator 19.0.0, SVG Export Plug-In . SVG Version: 6.00 Build 0)  -->
<svg version="1.1" id="Capa_1" xmlns="http://www.w3.org/2000/svg" xmlns:xlink="http://www.w3.org/1999/xlink" x="0px" y="0px"
	 viewBox="0 0 511.999 511.999" style="enable-background:new 0 0 511.999 511.999;" xml:space="preserve">
<g>
	<g>
		<path d="M256,295.581c-19.288,0-34.98,15.692-34.98,34.98c0,19.288,15.692,34.98,34.98,34.98s34.98-15.692,34.98-34.98
			C290.98,311.273,275.288,295.581,256,295.581z M256,345.542c-8.26,0-14.98-6.72-14.98-14.98s6.721-14.98,14.98-14.98
			c8.26,0,14.98,6.72,14.98,14.98S264.26,345.542,256,345.542z"/>
	</g>
</g>
<g>
	<g>
		<path d="M326.358,380.356c-19.288,0-34.98,15.692-34.98,34.98c0,19.288,15.691,34.98,34.98,34.98
			c19.288,0,34.98-15.692,34.98-34.98C361.339,396.047,345.646,380.356,326.358,380.356z M326.358,430.316
			c-8.26,0-14.98-6.72-14.98-14.98s6.72-14.98,14.98-14.98s14.98,6.72,14.98,14.98C341.339,423.596,334.618,430.316,326.358,430.316
			z"/>
	</g>
</g>
<g>
	<g>
		<path d="M185.642,380.356c-19.288,0-34.98,15.692-34.98,34.98c0,19.288,15.692,34.98,34.98,34.98s34.98-15.692,34.98-34.98
			C220.622,396.047,204.931,380.356,185.642,380.356z M185.642,430.316c-8.26,0-14.98-6.72-14.98-14.98s6.721-14.98,14.98-14.98
			c8.26,0,14.98,6.72,14.98,14.98C200.622,423.596,193.901,430.316,185.642,430.316z"/>
	</g>
</g>
<g>
	<g>
		<path d="M57.647,151.089c-0.129-0.64-0.319-1.27-0.569-1.87c-0.25-0.6-0.561-1.18-0.92-1.73c-0.36-0.54-0.78-1.05-1.24-1.52
			c-0.46-0.46-0.97-0.87-1.521-1.24c-0.54-0.36-1.119-0.67-1.729-0.92c-0.601-0.25-1.23-0.441-1.87-0.57
			c-1.29-0.26-2.62-0.26-3.91,0c-0.63,0.13-1.26,0.32-1.87,0.57c-0.6,0.25-1.18,0.559-1.72,0.92c-0.55,0.37-1.06,0.78-1.519,1.24
			c-0.471,0.47-0.881,0.98-1.25,1.52c-0.36,0.55-0.671,1.13-0.921,1.73s-0.439,1.23-0.569,1.87c-0.13,0.65-0.19,1.3-0.19,1.96
			c0,0.65,0.061,1.3,0.19,1.95c0.13,0.64,0.319,1.27,0.569,1.87c0.25,0.6,0.561,1.18,0.921,1.73c0.369,0.54,0.779,1.05,1.25,1.52
			c0.46,0.46,0.97,0.88,1.519,1.24c0.54,0.36,1.12,0.67,1.72,0.92c0.61,0.25,1.24,0.44,1.87,0.57c0.65,0.13,1.311,0.2,1.96,0.2
			c0.65,0,1.311-0.07,1.95-0.2c0.64-0.13,1.27-0.32,1.87-0.57c0.61-0.25,1.189-0.56,1.729-0.92c0.551-0.36,1.061-0.78,1.521-1.24
			c0.46-0.47,0.88-0.98,1.24-1.52c0.359-0.55,0.67-1.13,0.92-1.73c0.25-0.6,0.439-1.23,0.569-1.87c0.131-0.65,0.2-1.3,0.2-1.95
			C57.847,152.389,57.778,151.739,57.647,151.089z"/>
	</g>
</g>
<g>
	<g>
		<path d="M488.342,85.343c-15.256-15.256-35.54-23.659-57.116-23.659s-41.86,8.402-57.116,23.658L256,203.451L137.892,85.342
			c-15.256-15.256-35.54-23.659-57.116-23.659s-41.86,8.402-57.116,23.658C8.402,100.599,0,120.883,0,142.459
			s8.402,41.86,23.658,57.117l125.179,125.178c1.953,1.953,4.512,2.929,7.071,2.929s5.118-0.976,7.071-2.929L256,231.734
			l93.02,93.021c1.953,1.953,4.512,2.929,7.071,2.929s5.118-0.977,7.071-2.929l125.179-125.178
			c15.256-15.256,23.658-35.541,23.658-57.117C512,120.883,503.598,100.599,488.342,85.343z M37.802,185.433
			C26.321,173.954,20,158.692,20,142.459c0-16.233,6.321-31.495,17.801-42.974c11.479-11.479,26.74-17.8,42.974-17.8
			s31.495,6.322,42.974,17.8l78.516,78.517l-57.659,57.659l-63.628-63.628c-3.906-3.905-10.236-3.905-14.143,0
			c-3.905,3.905-3.905,10.237,0,14.143l63.628,63.628l-14.145,14.146L37.802,185.433z M155.908,303.54l-25.448-25.448l14.145-14.145
			l25.448,25.448L155.908,303.54z M184.196,275.252l-25.448-25.448l57.66-57.66l25.448,25.448L184.196,275.252z M270.145,217.592
			l25.447-25.448l57.66,57.66l-25.448,25.448L270.145,217.592z M356.092,303.54l-14.145-14.145l25.448-25.448l14.145,14.145
			L356.092,303.54z M474.199,185.433l-78.516,78.517l-14.146-14.146l63.628-63.628c3.905-3.905,3.905-10.237,0-14.143
			c-3.906-3.904-10.236-3.904-14.143,0l-63.629,63.628l-57.659-57.659l78.517-78.518c11.479-11.479,26.74-17.8,42.974-17.8
			c16.234,0,31.495,6.322,42.974,17.801c11.479,11.479,17.801,26.74,17.801,42.974C492,158.692,485.679,173.954,474.199,185.433z"/>
	</g>
</g>
<g>
	<g>
		<path d="M473.963,151.089c-0.131-0.64-0.321-1.27-0.571-1.87c-0.25-0.6-0.56-1.18-0.92-1.73c-0.37-0.54-0.79-1.05-1.25-1.52
			c-0.46-0.46-0.97-0.87-1.52-1.24c-0.54-0.36-1.12-0.67-1.721-0.92c-0.609-0.25-1.239-0.441-1.87-0.57
			c-1.3-0.26-2.619-0.26-3.909,0c-0.641,0.13-1.271,0.32-1.87,0.57c-0.61,0.25-1.19,0.559-1.73,0.92c-0.55,0.37-1.06,0.78-1.52,1.24
			c-0.46,0.47-0.88,0.98-1.24,1.52c-0.36,0.55-0.67,1.13-0.92,1.73s-0.44,1.23-0.57,1.87c-0.13,0.65-0.2,1.3-0.2,1.96
			c0,0.65,0.07,1.3,0.2,1.95c0.13,0.64,0.32,1.27,0.57,1.87c0.25,0.6,0.56,1.18,0.92,1.73c0.36,0.54,0.78,1.06,1.24,1.52
			c0.46,0.46,0.97,0.88,1.52,1.24c0.54,0.36,1.12,0.67,1.73,0.92c0.6,0.25,1.229,0.44,1.87,0.57c0.64,0.13,1.3,0.2,1.949,0.2
			c0.65,0,1.311-0.07,1.96-0.2c0.631-0.13,1.261-0.32,1.87-0.57c0.601-0.25,1.181-0.56,1.721-0.92c0.55-0.36,1.06-0.78,1.52-1.24
			c1.86-1.87,2.93-4.44,2.93-7.07C474.152,152.389,474.092,151.739,473.963,151.089z"/>
	</g>
</g>
<g>
</g>
<g>
</g>
<g>
</g>
<g>
</g>
<g>
</g>
<g>
</g>
<g>
</g>
<g>
</g>
<g>
</g>
<g>
</g>
<g>
</g>
<g>
</g>
<g>
</g>
<g>
</g>
<g>
</g>
</svg>
