<?xml version="1.0" encoding="iso-8859-1"?>
<!-- Generator: Adobe Illustrator 19.0.0, SVG Export Plug-In . SVG Version: 6.00 Build 0)  -->
<svg version="1.1" id="Capa_1" xmlns="http://www.w3.org/2000/svg" xmlns:xlink="http://www.w3.org/1999/xlink" x="0px" y="0px"
	 viewBox="0 0 511.999 511.999" style="enable-background:new 0 0 511.999 511.999;" xml:space="preserve">
<g>
	<g>
		<path d="M285.867,150.824c24.928,0,60.09-4.722,83.148-27.778c38.213-38.214,26.062-109.67,25.526-112.693
			c-0.732-4.133-3.969-7.368-8.102-8.101c-3.021-0.536-74.478-12.685-112.693,25.527c-2.855,2.855-5.429,5.896-7.747,9.08V13.305
			c0-5.523-4.478-9.999-9.999-9.999c-5.523,0-9.999,4.477-9.999,9.999V36.86c-2.319-3.185-4.893-6.226-7.748-9.081
			C200.038-10.434,128.58,1.716,125.559,2.252c-4.133,0.733-7.367,3.968-8.1,8.101c-0.536,3.023-12.686,74.479,25.526,112.693
			c23.061,23.06,58.219,27.778,83.147,27.778c7.88,0,14.738-0.472,19.868-0.986v28.666h-90.562c-5.523,0-9.999,4.477-9.999,9.999
			v43.793c0,5.523,4.477,9.999,9.999,9.999h6.992v176.133c0,51.595,41.975,93.57,93.57,93.57s93.57-41.975,93.57-93.57V242.297
			h6.992c5.522,0,9.999-4.477,9.999-9.999v-43.793c0-5.523-4.478-9.999-9.999-9.999h-90.562V149.84
			C271.129,150.352,277.986,150.824,285.867,150.824z M287.889,41.92c24.647-24.646,70.284-22.717,87.885-20.9
			c1.816,17.609,3.744,63.24-20.9,87.883c-24.652,24.652-70.308,22.716-87.897,20.899c-0.424-4.05-0.856-9.583-0.966-16.005
			c0.028-1.933,0.029-3.937-0.004-6.001C266.344,86.804,270.561,59.248,287.889,41.92z M245.975,112.437
			c-0.022,2.465-0.093,4.809-0.194,7.002l-55.765-55.763c-3.905-3.905-10.236-3.905-14.142,0c-3.905,3.905-3.905,10.236,0,14.142
			l52.936,52.936c-21.483,0.328-52.767-2.934-71.682-21.85c-24.646-24.645-22.716-70.283-20.9-87.883
			c17.613-1.817,63.243-3.742,87.884,20.899c17.687,17.688,21.687,46.187,21.865,67.375
			C245.967,110.36,245.967,111.408,245.975,112.437z M329.572,418.43L329.572,418.43c0,40.567-33.004,73.571-73.571,73.571
			s-73.571-33.004-73.571-73.571V242.297h147.143V418.43z M346.563,198.504v23.794H165.438v-23.794H346.563z"/>
	</g>
</g>
<g>
	<g>
		<path d="M166.826,42.868c-0.13-0.64-0.32-1.27-0.57-1.87c-0.25-0.61-0.56-1.19-0.92-1.73c-0.37-0.55-0.78-1.06-1.24-1.52
			c-0.47-0.46-0.98-0.88-1.53-1.24c-0.54-0.36-1.12-0.67-1.72-0.92c-0.6-0.25-1.23-0.44-1.87-0.57c-1.29-0.26-2.62-0.26-3.91,0
			c-0.64,0.13-1.27,0.32-1.87,0.57c-0.6,0.25-1.18,0.56-1.73,0.92c-0.54,0.36-1.06,0.78-1.52,1.24s-0.88,0.97-1.24,1.52
			c-0.36,0.54-0.67,1.12-0.92,1.73c-0.25,0.6-0.44,1.23-0.57,1.87c-0.13,0.64-0.2,1.3-0.2,1.95s0.07,1.31,0.2,1.96
			c0.13,0.63,0.32,1.26,0.57,1.87c0.25,0.6,0.56,1.18,0.92,1.72c0.36,0.55,0.78,1.06,1.24,1.52s0.98,0.88,1.52,1.25
			c0.55,0.36,1.13,0.67,1.73,0.92c0.6,0.25,1.23,0.44,1.87,0.57c0.65,0.13,1.3,0.19,1.96,0.19c0.65,0,1.3-0.06,1.95-0.19
			c0.64-0.13,1.27-0.32,1.87-0.57s1.18-0.56,1.72-0.92c0.55-0.37,1.059-0.79,1.53-1.25c0.46-0.46,0.87-0.97,1.24-1.52
			c0.36-0.54,0.67-1.12,0.92-1.72c0.25-0.61,0.44-1.24,0.57-1.87c0.13-0.65,0.2-1.31,0.2-1.96S166.956,43.508,166.826,42.868z"/>
	</g>
</g>
<g>
	<g>
		<path d="M302.581,264.903h-93.16c-5.523,0-9.999,4.477-9.999,9.999v141.023c0,31.198,25.381,56.579,56.579,56.579
			s56.579-25.381,56.579-56.579V274.902C312.58,269.379,308.102,264.903,302.581,264.903z M292.581,415.925
			c0,8.634-3.008,16.58-8.03,22.845V347.01c0-5.523-4.478-9.999-9.999-9.999c-5.522,0-9.999,4.477-9.999,9.999v104.485
			c-2.745,0.66-5.608,1.01-8.552,1.01c-20.171,0-36.581-16.41-36.581-36.581V284.901h0h73.161V415.925z"/>
	</g>
</g>
<g>
	<g>
		<path d="M284.358,304.142c-0.13-0.64-0.319-1.27-0.569-1.87c-0.25-0.61-0.561-1.19-0.92-1.73c-0.37-0.55-0.79-1.06-1.25-1.52
			s-0.971-0.88-1.521-1.24c-0.54-0.36-1.12-0.67-1.72-0.92c-0.61-0.25-1.24-0.44-1.87-0.57c-1.29-0.26-2.62-0.26-3.91,0
			c-0.64,0.13-1.27,0.32-1.87,0.57c-0.609,0.25-1.189,0.56-1.729,0.92c-0.55,0.36-1.061,0.78-1.521,1.24s-0.88,0.97-1.239,1.52
			c-0.36,0.54-0.671,1.12-0.921,1.73c-0.25,0.6-0.439,1.23-0.569,1.87s-0.2,1.3-0.2,1.95c0,0.65,0.07,1.309,0.2,1.96
			c0.13,0.631,0.319,1.26,0.569,1.87c0.25,0.6,0.561,1.18,0.921,1.72c0.359,0.55,0.779,1.06,1.239,1.52s0.971,0.88,1.521,1.25
			c0.54,0.36,1.12,0.67,1.729,0.92c0.601,0.25,1.23,0.44,1.87,0.57c0.641,0.13,1.3,0.191,1.95,0.191s1.31-0.06,1.96-0.191
			c0.63-0.13,1.26-0.32,1.87-0.57c0.6-0.25,1.18-0.56,1.72-0.92c0.55-0.37,1.061-0.79,1.521-1.25s0.88-0.97,1.25-1.52
			c0.359-0.54,0.67-1.12,0.92-1.72c0.25-0.61,0.439-1.24,0.569-1.87c0.131-0.65,0.19-1.31,0.19-1.96
			S284.488,304.782,284.358,304.142z"/>
	</g>
</g>
<g>
</g>
<g>
</g>
<g>
</g>
<g>
</g>
<g>
</g>
<g>
</g>
<g>
</g>
<g>
</g>
<g>
</g>
<g>
</g>
<g>
</g>
<g>
</g>
<g>
</g>
<g>
</g>
<g>
</g>
</svg>
